PathFileType	4	(X/Y/Z)	40_2_48_p0_0-318.trc
DataRate	CameraRate	NumFrames	NumMarkers	Units	OrigDataRate	OrigDataStartFrame	OrigNumFrames
59.0	59.0	6	27	m	59.0	279	319
Frame#	Time	RHip			RKnee			RAnkle			RBigToe			RSmallToe			RHeel			LHip			LKnee			LAnkle			LBigToe			LSmallToe			LHeel			Neck			Head			Nose			RShoulder			RElbow			RWrist			RThumb			RIndex			RPinky			LShoulder			LElbow			LWrist			LThumb			LIndex			LPinky			
		X1	Y1	Z1	X2	Y2	Z2	X3	Y3	Z3	X4	Y4	Z4	X5	Y5	Z5	X6	Y6	Z6	X7	Y7	Z7	X8	Y8	Z8	X9	Y9	Z9	X10	Y10	Z10	X11	Y11	Z11	X12	Y12	Z12	X13	Y13	Z13	X14	Y14	Z14	X15	Y15	Z15	X16	Y16	Z16	X17	Y17	Z17	X18	Y18	Z18	X19	Y19	Z19	X20	Y20	Z20	X21	Y21	Z21	X22	Y22	Z22	X23	Y23	Z23	X24	Y24	Z24	X25	Y25	Z25	X26	Y26	Z26	X27	Y27	Z27	
279	4.728813559322034	0.357508118466783	0.5456725203658621	0.8696884331794552	0.32615371416539063	0.7260598656259246	1.2982188493466702	0.3114407585901647	0.8016005699839044	1.67828903105108	0.297923356601382	0.6362882629802324	1.6896138650137786	0.3509699317908048	0.6835136415674508	1.705659908686738	0.2841433018806334	0.9117617429707358	1.7605591750710745	0.13968943238804496	0.5686054738450893	0.8897275818802012	0.12082175935980229	0.7415738396672559	1.2969226026578797	0.11299380724088433	0.8455198329930544	1.7036333740571576	0.1500448613097184	0.621257209933705	1.680877530588716	0.11676829002610356	0.6507527257805795	1.6922617543173282	0.1270325786291468	0.8889099523964938	1.740564404601598	0.2582897258943105	0.4717538342040355	0.3584045202487273	0.268758544010583	0.41037906404578384	0.11754948342681895	0.2724373516211893	0.3144771703271292	0.24814810567176962	0.39722987127322323	0.5080479227018407	0.4477568312640825	0.44169600830021316	0.4622294407464229	0.6909292137341302	0.3219385820620995	0.4094453458277717	0.895879409559317	0.233693589196421	0.39871250883009873	0.9748324612463305	0.22538509611096258	0.4245302116445628	0.9844468484835427	0.24640817146855165	0.4120671822229418	0.9768613619843098	0.09185594372793011	0.46493322444787233	0.4322747001953225	0.06755814141532278	0.4976823506246286	0.6948645840652159	0.17397260900075448	0.38342204059289	0.8938572807050452	0.27681846255158243	0.357906319344236	0.9406572237609897	0.27461178314848134	0.3875556818690886	0.9759950041285927	0.22750577662363608	0.4213266013647975	0.9965768602209618
280	4.745762711864407	0.3580462125382	0.5454936153835095	0.8735778965280869	0.32613458724759375	0.726663565902999	1.2983444751481652	0.3113836326470885	0.8017438735985245	1.678320454345629	0.2983866286197178	0.6359595870903573	1.6892883801980128	0.3553149663142139	0.6855082494574807	1.7058245819850681	0.2840766320059022	0.9123030838764209	1.7603324236062148	0.1396922624092364	0.5686460579839908	0.8897002023560479	0.12526663044549208	0.7439904958770688	1.3010893501074337	0.11357881418094921	0.8485720565116912	1.7092704114511899	0.1500874394271707	0.6389226577631976	1.6944186273134656	0.11576253802865591	0.651880621917048	1.6959832827279737	0.12707800167454128	0.8889074274363966	1.7405082583954161	0.2582508353468297	0.47176122991984465	0.3583769206842642	0.2686139102504634	0.41046374250682705	0.11749628516598218	0.277238143460877	0.3034608710167835	0.24920325793626386	0.3969549886789312	0.5062640528838658	0.4440611954908562	0.44166704225303455	0.45980471284479507	0.6833399132684413	0.3244793892041052	0.422722015943432	0.9006312843207784	0.22925926506876282	0.3964405002233138	0.9741193558008321	0.22336268729031936	0.4116170945612921	0.9823634523063186	0.24638402001555954	0.41300130454745976	0.9767382190008856	0.09171215532243242	0.4648600489091246	0.432366806325421	0.06747586340034745	0.4979668682931817	0.6950461133915551	0.1753642925050807	0.39520522322100177	0.8949957192070152	0.2686931529493345	0.3576332539280229	0.9376526634502828	0.2741237129454891	0.38612866310709626	0.9758994755363577	0.22707444916525285	0.4202236661961954	0.993520068672422
281	4.762711864406779	0.35700947155888135	0.5436989198673705	0.8657212477388927	0.32608558466152265	0.7266496863257158	1.2981332957746912	0.3053956070943611	0.8175545399768556	1.6842886761394458	0.2971375306463452	0.6322170206054473	1.6840962357081801	0.3540947384331992	0.6823121353538887	1.7006123628581495	0.28609994967710783	0.9296256714445444	1.7657530182217598	0.14021447216990088	0.5681049512087871	0.8856641589054517	0.12481637675379995	0.740702780104187	1.2957398028452438	0.11294217392850062	0.8455325733379482	1.7037918892948734	0.15085733181342525	0.6348176750995829	1.6859027766750294	0.11687352355660063	0.6506121569029152	1.6922815861379243	0.1269613064426307	0.889887825076836	1.74142288014355	0.25819844629683275	0.47181833533697604	0.3583885766326828	0.26306183738620387	0.3977630661117048	0.11956290682948767	0.27717004175778664	0.30349188024396273	0.24932569134384241	0.39697749655922315	0.5060738730876052	0.4439422770638982	0.44424601030173577	0.47105282811061217	0.6835366830210986	0.3261548950000848	0.4326092966889152	0.8981681853200476	0.2342717370827512	0.3969318742697491	0.9708258003365354	0.22535716701566608	0.42448113790165504	0.9838354502904234	0.2520204738596722	0.4278069452496044	0.9781462295020751	0.09167731302445604	0.4652759816126274	0.436043055614848	0.0677664182737691	0.49781702953688256	0.6982661688579717	0.17557152942132007	0.39567890390257093	0.8948125107408157	0.28218037175822414	0.3680957076830611	0.9304307210984388	0.2767887331660199	0.3991259422412104	0.9771426058355603	0.22898793078429375	0.4308076738883824	0.9948632600829169
282	4.779661016949152	0.35744331597875945	0.5454208815239981	0.8693869067147261	0.3217572978243306	0.7242287208226021	1.2979253929839876	0.3053403199890292	0.8177913581661723	1.6843152270499382	0.2979174005015722	0.6351757285780841	1.6891272444383645	0.35405690187197963	0.682350463944702	1.7006267177356562	0.279935017159972	0.9428306363502125	1.7621752492858305	0.1399302924988017	0.5684959554697805	0.8820360198233547	0.12068280725821884	0.738273994352585	1.2954186276780766	0.11477339631616142	0.8474569959209256	1.7044325897051347	0.15733229551496306	0.6231045559758106	1.6845926817326375	0.11704523888123407	0.6502794347692827	1.6922515211086084	0.12697784513457697	0.8898295142457685	1.7412381599401738	0.2581417543244185	0.47187718919636407	0.35840177828266745	0.2578819325152388	0.40897182901227747	0.11797027470484955	0.2785444162226546	0.3139954305561517	0.24810140678674827	0.3968879806361743	0.505986164796508	0.4439288860882953	0.44179881119362735	0.4599908622075177	0.6834505844386654	0.3281890873224289	0.4439823509955857	0.8996802557006468	0.23151238599078094	0.4348070336422687	0.9763163258339369	0.22708234190648247	0.4374967581325429	0.9858699141991512	0.24855318608227175	0.452441976952758	0.9820395075724243	0.09155418649425734	0.4653574214634257	0.43609826544190744	0.07127024460851075	0.4975625287534304	0.697418414650427	0.1793374397134741	0.397651681027691	0.8946992025244969	0.2810635711526545	0.3851306085125937	0.9364779746713461	0.2822819493890364	0.39266420889975845	0.9756700524828154	0.2291079782095598	0.43086587053289827	0.9947293874922026
283	4.796610169491525	0.3574512118452912	0.5426303307170324	0.8615122983912783	0.3218071802162926	0.7243862816341362	1.2979824411735512	0.3053966000534207	0.8175219255825518	1.6843098230370912	0.2976987221613592	0.6350874290191496	1.6892608681161283	0.35476773704663395	0.6848851918318185	1.7059899630772015	0.28443461960246796	0.9075843303360961	1.749879899668922	0.1396959611162842	0.5660425256899261	0.8771944494534668	0.12467430741120898	0.7409248912594419	1.2957366542822644	0.12058878718170242	0.8324783905229284	1.7029034804652177	0.15657169375608723	0.6096650195383198	1.6797159343804011	0.12412306865182572	0.6348802015380692	1.6905854820824833	0.12681002673285452	0.8885345380636063	1.740790627925078	0.2582924518117463	0.47187310092423324	0.36195828891707754	0.2577512685825711	0.40911782703398486	0.11794426136351331	0.27845383199504886	0.31404153634796794	0.24810860681540478	0.3967696417604877	0.505768608810237	0.4438619081108269	0.4412516103233348	0.4604721158383092	0.6868212206181252	0.3298717420367429	0.4564313306708897	0.9049396945722119	0.23285461461643822	0.44929654837445576	0.978459722691737	0.23241799860608336	0.4524628716746636	0.9876682726069161	0.2489528568098626	0.4536948945339818	0.9821276376060081	0.09150670632600097	0.4654228224021072	0.43618262709522065	0.07109316921511526	0.5001132628089868	0.7053886606573657	0.17945683001030635	0.3979230113387135	0.8948298355533506	0.2807529289297033	0.38620582670763176	0.9368510042966534	0.2879098374236325	0.4062693900522815	0.9770364184462546	0.2327099628086687	0.4527562114083932	0.9980658239606377
284	4.813559322033898	0.3592688540258891	0.5555835432986391	0.8663813259082753	0.3193585112737579	0.7100488683098479	1.2949641134941954	0.3114244351234472	0.8015675014812773	1.6782142472130632	0.2973369366539224	0.6331313346851293	1.6886888864137901	0.3605525711168503	0.6684084309084402	1.6995115310695457	0.28726583588601773	0.9280654600082121	1.7614271249581352	0.1481204596831851	0.5691449751385141	0.8815390957149682	0.12115654196848348	0.7411755752191311	1.3008357070064194	0.11407666432589944	0.844521815875741	1.6989831144398446	0.1561456569348354	0.6071788278349856	1.6749229405733173	0.1172602177482295	0.6462147173738004	1.6908488357481386	0.12676176845601636	0.8884378236082707	1.7404956274387589	0.25803672565632935	0.47169917727451827	0.35843669189941174	0.25765721267977015	0.4091195902212347	0.1179273975070045	0.2679508218372879	0.3128123392185201	0.2486193018151186	0.39047194286634257	0.4927545928665792	0.4445851487577147	0.44147451098505774	0.45989244491580333	0.6828432013610053	0.3282820638398004	0.4447333092556981	0.8998032869889583	0.2329547730398625	0.44938750726396925	0.9777610340961259	0.230617075662916	0.46386550442203905	0.989049859764985	0.24315728841517115	0.466443337631617	0.984461464497762	0.09160700940928164	0.4653980940805137	0.4361492449584702	0.07111020212054595	0.5001576447180406	0.7054073012038212	0.18305668558471444	0.39967042301878686	0.8946968379045812	0.27982444420945746	0.38499945451917633	0.9298062532371655	0.2878866654371369	0.40669615661188707	0.9772260157667105	0.2344261896682776	0.4640516304205452	0.99952967083164
